<?xml version="1.0" standalone="no"?>
<!DOCTYPE svg PUBLIC "-//W3C//DTD SVG 1.1//EN" "http://www.w3.org/Graphics/SVG/1.1/DTD/svg11.dtd" >
<!--
2013-9-30: Created.
-->
<svg>
<metadata>
Created by iconfont
</metadata>
<defs>

<font id="vue-music-icon" horiz-adv-x="1024" >
  <font-face
    font-family="vue-music-icon"
    font-weight="500"
    font-stretch="normal"
    units-per-em="1024"
    ascent="896"
    descent="-128"
  />
    <missing-glyph />
    
    <glyph glyph-name="x" unicode="x" horiz-adv-x="1001"
d="M281 543q-27 -1 -53 -1h-83q-18 0 -36.5 -6t-32.5 -18.5t-23 -32t-9 -45.5v-76h912v41q0 16 -0.5 30t-0.5 18q0 13 -5 29t-17 29.5t-31.5 22.5t-49.5 9h-133v-97h-438v97zM955 310v-52q0 -23 0.5 -52t0.5 -58t-10.5 -47.5t-26 -30t-33 -16t-31.5 -4.5q-14 -1 -29.5 -0.5
t-29.5 0.5h-32l-45 128h-439l-44 -128h-29h-34q-20 0 -45 1q-25 0 -41 9.5t-25.5 23t-13.5 29.5t-4 30v167h911zM163 247q-12 0 -21 -8.5t-9 -21.5t9 -21.5t21 -8.5q13 0 22 8.5t9 21.5t-9 21.5t-22 8.5zM316 123q-8 -26 -14 -48q-5 -19 -10.5 -37t-7.5 -25t-3 -15t1 -14.5
t9.5 -10.5t21.5 -4h37h67h81h80h64h36q23 0 34 12t2 38q-5 13 -9.5 30.5t-9.5 34.5q-5 19 -11 39h-368zM336 498v228q0 11 2.5 23t10 21.5t20.5 15.5t34 6h188q31 0 51.5 -14.5t20.5 -52.5v-227h-327z" />
    

    
    <glyph glyph-name="user" unicode="&#58881;" d="M715.37 489.27H310.29a19.29 19.29 0 0 1 0-38.58h405.08a19.29 19.29 0 0 1 0 38.58zM512.83 894.35C230.52 894.35 1.65 665.49 1.65 383.17999999999995S230.52-128 512.83-128 1024 100.86000000000001 1024 383.17999999999995 795.14 894.35 512.83 894.35z m0-983.76c-261 0-472.59 211.59-472.59 472.59S251.82 855.77 512.83 855.77s472.59-211.59 472.59-472.59-211.59-472.6-472.59-472.6z m202.54 385.78H310.29a19.29 19.29 0 1 1 0-38.58h405.08a19.29 19.29 0 1 1 0 38.58z"  horiz-adv-x="1024" />

    
    <glyph glyph-name="narrow" unicode="&#58882;" d="M677.51 570.0899999999999L390.61 283.20000000000005a19.25 19.25 0 0 1-4.2-6.29V393.66a19.32 19.32 0 1 1-38.64 0v-154.57a19.32 19.32 0 0 1 19.32-19.32h154.57a19.32 19.32 0 0 1 0 38.65H420.48l284.35 284.35a19.32 19.32 0 0 1-27.32 27.32zM512 896C229.23 896 0 666.77 0 384s229.23-512 512-512 512 229.23 512 512S794.77 896 512 896z m0-985.35C250.57-89.35000000000002 38.64 122.57000000000005 38.64 384S250.57 857.36 512 857.36 985.36 645.4300000000001 985.36 384 773.43-89.35000000000002 512-89.35000000000002z"  horiz-adv-x="1024" />

    
    <glyph glyph-name="play-a" unicode="&#58883;" d="M246-63.56V832.13l672.1-447.84z m34.64 831v-766.28l575 383.13z"  horiz-adv-x="1024" />

    
    <glyph glyph-name="stop-a" unicode="&#58884;" d="M787 756.64a17.74 17.74 0 0 1-17.7-17.74v-709.8a17.75 17.75 0 0 1 35.49 0V738.9A17.75 17.75 0 0 1 787 756.64z m-550.09 0a17.74 17.74 0 0 1-17.74-17.74v-709.8a17.74 17.74 0 1 1 35.49 0V738.9A17.74 17.74 0 0 1 237 756.64z"  horiz-adv-x="1024" />

    
    <glyph glyph-name="play-b" unicode="&#58885;" d="M272.88-63.56a16.6 16.6 0 0 0-16.61 16.61V815.16a16.61 16.61 0 0 0 26 13.71l631.23-432a16.61 16.61 0 0 0 0-27.43L282.24-60.67a16.62 16.62 0 0 0-9.36-2.89z m16.61 847.22v-799.18l585.17 398.75z"  horiz-adv-x="1024" />

    
    <glyph glyph-name="stop-b" unicode="&#58886;" d="M237.68 755.38a16.88 16.88 0 0 1-16.88-16.88v-709a16.88 16.88 0 0 1 33.76 0v709a16.88 16.88 0 0 1-16.88 16.88z m548.64 0a16.88 16.88 0 0 1-16.88-16.88v-709a16.88 16.88 0 1 1 33.76 0v709a16.88 16.88 0 0 1-16.88 16.88z"  horiz-adv-x="1024" />

    
    <glyph glyph-name="next" unicode="&#58887;" d="M75.84 66.39a21.25 21.25 0 0 1 22.08 1.44l392.6 274.6v-257.12a21.33 21.33 0 0 1 33.56-17.48L950.23 365.9a21.33 21.33 0 0 1 0 34.93L524.11 700.16a21.33 21.33 0 0 1-33.59-17.46v-258.27L98 700.16a21.33 21.33 0 0 1-33.64-17.46v-597.4a21.31 21.31 0 0 1 11.48-18.91z m457.34 575.26l367.66-258.23-367.66-257.16z m-426.16 0l367.67-258.23L107 126.26z"  horiz-adv-x="1024" />

    
    <glyph glyph-name="prev" unicode="&#58888;" d="M947.86 701.61a21.25 21.25 0 0 1-22.08-1.44l-392.6-274.6V682.69a21.33 21.33 0 0 1-33.56 17.48L73.46 402.1a21.33 21.33 0 0 1 0-34.93l426.13-299.33a21.33 21.33 0 0 1 33.59 17.46V343.57l392.57-275.73a21.33 21.33 0 0 1 33.59 17.46V682.69a21.31 21.31 0 0 1-11.48 18.92zM490.52 126.35L122.85 384.58l367.67 257.16z m426.16 0L549 384.58l367.67 257.16z"  horiz-adv-x="1024" />

    
    <glyph glyph-name="loop-one" unicode="&#58889;" d="M493.38 439.87v-111.74a18.62 18.62 0 1 1 37.25 0V439.87a18.62 18.62 0 1 1-37.25 0zM149.69 346.75h0.31a18.63 18.63 0 0 1 18.33 18.91l-1.73 109.51A56.92 56.92 0 0 0 223.53 533H876a18.62 18.62 0 1 1 0 37.25H223.53a94.18 94.18 0 0 1-94.17-95.65l1.71-109.51a18.64 18.64 0 0 1 18.62-18.34zM874 421.25a18.63 18.63 0 0 1-18.33-18.91l1.71-109.51A56.92 56.92 0 0 0 800.47 235H148a18.62 18.62 0 0 1 0-37.25h652.47a94.18 94.18 0 0 1 94.17 95.65l-1.71 109.51c-0.16 10.28-8.2 18.68-18.93 18.34z"  horiz-adv-x="1024" />

    
    <glyph glyph-name="loop-list" unicode="&#58890;" d="M149.69 346.75h0.31a18.63 18.63 0 0 1 18.33 18.91l-1.73 109.51A56.92 56.92 0 0 0 223.53 533H876a18.62 18.62 0 1 1 0 37.25H223.53a94.18 94.18 0 0 1-94.17-95.65l1.71-109.51a18.64 18.64 0 0 1 18.62-18.34zM874 421.25a18.63 18.63 0 0 1-18.33-18.91l1.71-109.51A56.92 56.92 0 0 0 800.47 235H148a18.62 18.62 0 0 1 0-37.25h652.47a94.18 94.18 0 0 1 94.17 95.65l-1.71 109.51c-0.16 10.28-8.2 18.68-18.93 18.34z"  horiz-adv-x="1024" />

    
    <glyph glyph-name="song-list" unicode="&#58891;" d="M251.57 644.43h520.86a27.41 27.41 0 0 1 0 54.83H251.57a27.41 27.41 0 0 1 0-54.83z m520.86-219.3h-329a27.41 27.41 0 1 1 0-54.83h329a27.41 27.41 0 0 1 0 54.83z m0-301.55H251.57a27.41 27.41 0 0 1 0-54.83h520.86a27.41 27.41 0 1 1 0 54.83z"  horiz-adv-x="1024" />

    
    <glyph glyph-name="random" unicode="&#58892;" d="M865.85 235H616.09l-82.78 149 82.78 149h249.76a18.62 18.62 0 0 1 0 37.25H605.12a18.6 18.6 0 0 1-16.28-9.58L512 422.35l-76.84 138.31a18.6 18.6 0 0 1-16.28 9.58H158.15a18.62 18.62 0 0 1 0-37.25h249.76l82.78-149L407.91 235H158.15a18.62 18.62 0 0 1 0-37.25h260.73a18.6 18.6 0 0 1 16.28 9.58L512 345.65l76.84-138.31a18.6 18.6 0 0 1 16.28-9.58h260.73a18.62 18.62 0 0 1 0 37.25z"  horiz-adv-x="1024" />

    
    <glyph glyph-name="like-y" unicode="&#58893;" d="M512.41 19.9a24.64 24.64 0 0 0-23.67 17.82c-7.48 26-63.87 101-149.55 157.91-13.4 8.91-27.81 17.72-42.63 26.79-86.49 52.89-194.1 118.73-193.14 260 1.13 167.22 97 245.54 178.71 261.8 89.67 17.89 176-26.68 229.76-115.2 59.69 96.75 155.27 127.12 231.27 112.08 81.15-16 176.3-93 177.43-257.05 0.94-136-101.21-200.42-183.28-252.22-18.5-11.67-36-22.7-51.75-34-82.69-59.48-143.63-136.92-149.26-159.31a24.65 24.65 0 0 0-23.46-18.62z"  horiz-adv-x="1024" />

    
    <glyph glyph-name="like-n" unicode="&#58894;" d="M512.41 19.9a24.64 24.64 0 0 0-23.67 17.82c-7.48 26-63.87 101-149.55 157.91-13.4 8.91-27.81 17.72-42.63 26.79-86.49 52.89-194.1 118.73-193.14 260 1.13 167.22 97 245.54 178.71 261.8 89.67 17.89 176-26.68 229.76-115.2 59.69 96.75 155.27 127.12 231.27 112.08 81.15-16 176.3-93 177.43-257.05 0.94-136-101.21-200.42-183.28-252.22-18.5-11.67-36-22.7-51.75-34-82.69-59.48-143.63-136.92-149.26-159.31a24.65 24.65 0 0 0-23.46-18.62z m-192 678.83a147 147 0 0 1-28.7-2.85c-63.56-12.65-138.12-76.24-139.06-213.82-0.79-113.42 85.82-166.4 169.59-217.62 15.35-9.39 30.29-18.55 44.2-27.78C429.91 194.5 482.91 140 512.58 96.61c31.13 44.38 86.87 100 144.21 141.16 17 12.21 35.08 23.63 54.23 35.7 79.18 50 161 101.65 160.3 210.21-0.91 134.25-71.74 196-137.71 209.05-66.93 13.21-154.43-21-199.06-127.32a24.63 24.63 0 0 0-22.69-15.11 24.62 24.62 0 0 0-22.69 15C453.8 649 389.64 698.73 320.45 698.73z"  horiz-adv-x="1024" />

    
    <glyph glyph-name="arrow" unicode="&#58895;" d="M302.17-17.73a20.61 20.61 0 0 0 0 29.14l363.75 363.75a12.5 12.5 0 0 1 0 17.67L302.17 756.59a20.61 20.61 0 0 0 0 29.14 20.61 20.61 0 0 0 29.14 0l392.9-392.89a12.5 12.5 0 0 0 0-17.67l-392.9-392.9a20.61 20.61 0 0 0-29.14 0z"  horiz-adv-x="1024" />

    
    <glyph glyph-name="icon-test" unicode="&#58896;" d="M572.92 384l274.13 274.14a43.08 43.08 0 1 1-60.92 60.92L512 444.92 237.86 719.05a43.08 43.08 0 1 1-60.92-60.92L451.08 384 176.95 109.86a43.08 43.08 0 1 1 60.92-60.92L512 323.08l274.14-274.13a43.08 43.08 0 1 1 60.92 60.92z"  horiz-adv-x="1024" />

    
    <glyph glyph-name="dle" unicode="&#58897;" d="M416.47 673.17h213.44a30.49 30.49 0 0 1 0 61H416.47a30.49 30.49 0 1 1 0-61z m61-487.87V490.22a30.49 30.49 0 1 1-61 0V185.3a30.49 30.49 0 1 1 61 0z m243.94-91.48H325V551.21h-61v-518.37h518.37V551.21h-61z m122 548.86H203a30.49 30.49 0 1 1 0-61h640.36a30.49 30.49 0 1 1 0 61zM629.91 185.3V490.22a30.49 30.49 0 1 1-61 0V185.3a30.49 30.49 0 0 1 61 0z"  horiz-adv-x="1024" />

    
    <glyph glyph-name="singer" unicode="&#58898;" d="M821.62 31.49C761.83 141.06 645.61 215.41 512 215.41s-249.83-74.35-309.62-183.92h-68.05C198.91 175.92 343.56 276.71 512 276.71s313.09-100.8 377.67-245.22zM512 338c-110 0-199.24 89.21-199.24 199.24S402 736.51 512 736.51s199.24-89.21 199.24-199.25S622 338 512 338z m0 337.18a137.94 137.94 0 1 1 137.94-137.92A137.94 137.94 0 0 1 512 675.2z"  horiz-adv-x="1024" />

    
    <glyph glyph-name="song" unicode="&#58899;" d="M696.69 80a131.64 131.64 0 0 0 0 263.29c24.1 0 46.39-7 65.82-18.26V654.61l-427.84-97.75v-378.11H333C325 123 277.46 80 219.48 80a115.19 115.19 0 1 0 49.37 218.86V606.6l559.48 131.64v-526.58A131.65 131.65 0 0 0 696.69 80zM219.48 244.58a49.37 49.37 0 1 1 49.37-49.37 49.37 49.37 0 0 1-49.37 49.37z m477.21 32.91a65.82 65.82 0 1 1 65.82-65.82 65.82 65.82 0 0 1-65.82 65.82z"  horiz-adv-x="1024" />

    
    <glyph glyph-name="search" unicode="&#58900;" d="M687.87 648.1c-121.49 121.49-318.47 121.49-440 0s-121.49-318.47 0-440 318.47-121.49 440 0 121.49 318.51 0 440z m-31.43-408.54c-104.14-104.14-273-104.14-377.11 0s-104.14 273 0 377.11 273 104.14 377.11 0 104.14-272.97 0-377.11z m204.27-172.84l-110 110a22.22 22.22 0 0 1-31.43-31.43l110-110a22.22 22.22 0 1 1 31.43 31.43z"  horiz-adv-x="1024" />

    


  </font>
</defs>
</svg>
